{"glyphs":{":":{"x_min":0,"x_max":220,"ha":220,"o":"m 44 344 q 44 356 49 368 q 54 379 63 387 q 72 396 84 401 q 96 406 110 406 q 124 406 136 401 q 148 396 157 387 q 166 379 171 368 q 176 356 176 344 q 176 331 171 320 q 166 309 157 301 q 148 292 136 288 q 124 283 110 283 q 96 283 84 288 q 72 292 63 301 q 54 309 49 320 q 44 331 44 344 z m 44 57 q 44 70 49 81 q 54 92 63 101 q 72 109 84 114 q 96 118 110 118 q 124 118 136 114 q 148 109 157 101 q 166 92 171 81 q 176 70 176 57 q 176 44 171 33 q 166 22 157 13 q 148 5 136 0 q 124 -5 110 -5 q 96 -5 84 0 q 72 5 63 13 q 54 22 49 33 q 44 44 44 57 z"},"$":{"x_min":0,"x_max":505,"ha":505,"o":"m 355 187 q 355 203 351 215 q 347 228 339 237 q 331 247 319 255 q 308 262 292 269 l 292 109 q 323 117 339 138 q 355 158 355 187 z m 153 456 q 153 425 173 407 q 192 388 224 377 l 224 526 q 192 519 172 500 q 153 480 153 456 z m 448 191 q 448 160 438 133 q 428 106 408 85 q 389 64 359 50 q 330 35 292 29 l 292 -90 l 224 -90 l 224 26 q 201 27 179 31 q 157 34 137 40 q 117 46 100 54 q 83 62 70 71 l 70 164 q 84 154 103 143 q 122 133 142 125 q 163 116 184 110 q 206 104 224 103 l 224 293 q 187 306 156 321 q 126 335 105 354 q 84 373 73 397 q 61 421 61 453 q 61 485 73 510 q 86 536 108 554 q 129 573 159 585 q 189 598 224 602 l 224 710 l 292 710 l 292 605 q 324 603 354 595 q 385 587 415 576 l 415 490 q 403 496 388 501 q 374 507 357 512 q 341 517 325 521 q 308 525 292 527 l 292 354 q 325 341 354 325 q 382 310 403 291 q 424 271 436 247 q 448 222 448 191 z"},"?":{"x_min":0,"x_max":403,"ha":403,"o":"m 368 482 q 368 458 362 436 q 355 414 342 393 q 329 371 309 349 q 289 328 261 304 q 243 288 231 274 q 220 260 214 247 q 207 233 204 220 q 201 208 198 193 l 194 164 l 132 164 l 126 191 q 125 198 124 208 q 123 218 123 225 q 123 259 141 288 q 158 316 193 344 q 215 363 230 379 q 246 395 256 411 q 266 426 271 443 q 275 460 275 481 q 275 521 250 542 q 226 564 183 564 q 151 564 112 553 q 73 542 35 520 l 35 605 q 72 623 110 632 q 147 640 187 640 q 228 640 261 629 q 295 618 319 598 q 342 577 355 548 q 368 519 368 482 z m 102 57 q 102 70 107 81 q 112 92 121 101 q 130 109 142 114 q 154 118 168 118 q 182 118 193 114 q 205 109 214 101 q 223 92 228 81 q 233 70 233 57 q 233 44 228 33 q 223 22 214 13 q 205 5 193 0 q 182 -5 168 -5 q 154 -5 142 0 q 130 5 121 13 q 112 22 107 33 q 102 44 102 57 z"},"<":{"x_min":0,"x_max":505,"ha":505,"o":"m 450 54 l 54 246 l 54 293 l 450 510 l 450 420 l 179 272 l 450 143 z"},"'":{"x_min":0,"x_max":178,"ha":178,"o":"m 143 632 l 125 389 l 54 389 l 35 632 z"},"=":{"x_min":0,"x_max":505,"ha":505,"o":"m 44 228 l 463 228 l 463 150 l 44 150 z m 44 392 l 463 392 l 463 314 l 44 314 z"},"a":{"x_min":0,"x_max":468,"ha":468,"o":"m 301 184 q 290 185 276 186 q 262 186 247 186 q 214 186 193 180 q 172 174 160 165 q 148 155 143 143 q 138 130 138 117 q 138 92 153 77 q 168 61 195 61 q 222 61 250 73 q 279 85 301 106 z m 391 -9 q 373 -9 359 -5 q 346 -1 336 5 q 326 12 320 21 q 313 30 309 42 q 286 21 254 6 q 222 -9 178 -9 q 144 -9 118 0 q 93 10 76 26 q 59 43 51 65 q 42 87 42 114 q 42 179 92 214 q 142 249 240 249 q 255 249 269 248 q 284 248 301 246 q 301 291 282 314 q 264 338 221 338 q 191 338 159 330 q 128 323 97 310 l 97 383 q 124 396 158 403 q 193 410 225 410 q 267 410 298 402 q 330 394 352 375 q 373 356 384 326 q 395 295 395 250 l 395 95 q 395 78 404 69 q 413 61 423 61 q 433 61 441 62 q 449 62 460 65 l 460 9 q 448 0 430 -4 q 412 -9 391 -9 z"},"L":{"x_min":0,"x_max":424,"ha":424,"o":"m 390 0 l 87 0 l 87 632 l 183 632 l 183 81 l 390 81 z"},"3":{"x_min":0,"x_max":505,"ha":505,"o":"m 437 180 q 437 137 421 102 q 405 67 376 43 q 347 18 307 5 q 267 -9 218 -9 q 174 -9 135 0 q 97 9 66 28 l 66 117 q 83 105 103 96 q 122 86 142 80 q 161 73 180 70 q 199 66 215 66 q 278 66 307 95 q 337 125 337 176 q 337 201 326 221 q 315 240 295 254 q 274 267 247 274 q 219 281 185 281 l 138 281 l 138 361 l 168 361 q 206 361 233 369 q 261 378 280 393 q 298 407 307 427 q 316 447 316 470 q 316 495 308 513 q 301 530 288 542 q 274 553 256 558 q 238 563 217 563 q 203 563 185 560 q 167 556 147 550 q 128 543 108 534 q 88 525 71 513 l 71 598 q 106 620 145 630 q 184 640 226 640 q 271 640 305 629 q 340 618 364 596 q 388 575 400 545 q 413 515 413 477 q 413 450 404 426 q 395 402 379 383 q 364 364 342 349 q 320 334 295 325 q 327 319 353 306 q 379 293 398 274 q 417 255 427 231 q 437 207 437 180 z"},";":{"x_min":0,"x_max":229,"ha":229,"o":"m 53 344 q 53 356 58 368 q 63 379 72 387 q 81 396 93 401 q 105 406 119 406 q 133 406 145 401 q 157 396 166 387 q 174 379 179 368 q 184 356 184 344 q 184 331 179 320 q 174 309 166 301 q 157 292 145 288 q 133 283 119 283 q 105 283 93 288 q 81 292 72 301 q 63 309 58 320 q 53 331 53 344 z m 180 96 q 173 71 162 42 q 151 13 138 -17 q 125 -47 111 -77 q 98 -106 86 -131 l 14 -131 q 23 -104 31 -75 q 39 -45 46 -16 q 53 14 59 43 q 64 72 68 96 z"},"J":{"x_min":0,"x_max":334,"ha":334,"o":"m 253 632 l 253 161 q 253 123 244 91 q 236 60 218 37 q 200 15 172 3 q 145 -9 107 -9 q 83 -9 63 -5 q 42 -1 26 6 l 26 87 q 42 80 62 76 q 82 72 95 72 q 113 72 125 78 q 137 84 145 97 q 152 109 155 127 q 158 145 158 168 l 158 632 z"},"V":{"x_min":0,"x_max":585,"ha":585,"o":"m 585 632 l 339 0 l 242 0 l 0 632 l 103 632 l 260 204 q 263 196 268 180 q 274 164 279 147 q 285 130 289 117 q 292 103 293 99 q 293 102 295 109 q 297 117 300 127 q 303 137 307 149 q 311 161 314 171 q 317 182 320 191 q 323 200 324 204 l 485 632 z"},"\"":{"x_min":0,"x_max":366,"ha":366,"o":"m 145 632 l 127 389 l 56 389 l 37 632 z m 329 632 l 310 389 l 239 389 l 220 632 z"},"7":{"x_min":0,"x_max":505,"ha":505,"o":"m 468 606 q 427 533 389 459 q 350 386 315 310 q 280 235 249 157 q 219 80 194 0 l 98 0 l 98 22 q 112 63 131 110 q 149 156 171 205 q 193 254 216 303 q 240 352 263 397 q 286 442 309 482 q 331 521 350 552 l 61 552 l 61 632 l 449 632 z"},"S":{"x_min":0,"x_max":482,"ha":482,"o":"m 437 177 q 437 138 424 104 q 410 70 384 45 q 358 20 319 6 q 280 -9 229 -9 q 204 -9 179 -6 q 155 -2 133 4 q 110 10 91 18 q 72 26 58 35 l 58 133 q 74 122 95 111 q 116 100 140 91 q 163 83 186 77 q 209 72 228 72 q 256 72 278 79 q 299 86 313 99 q 328 112 335 131 q 342 149 342 171 q 342 196 333 213 q 324 230 307 243 q 291 255 267 266 q 244 276 215 287 q 175 303 145 319 q 114 334 93 355 q 72 375 61 402 q 50 428 50 465 q 50 505 66 537 q 82 570 110 593 q 138 615 175 628 q 212 640 255 640 q 300 640 337 632 q 374 624 404 611 l 404 523 q 390 530 371 536 q 353 542 332 548 q 312 553 291 556 q 271 559 252 559 q 226 559 206 552 q 186 546 172 534 q 158 522 151 506 q 144 490 144 470 q 144 448 153 432 q 163 417 180 404 q 197 392 221 381 q 245 371 275 359 q 313 344 343 327 q 373 311 394 290 q 415 269 426 241 q 437 213 437 177 z"},"}":{"x_min":0,"x_max":325,"ha":325,"o":"m 297 211 q 277 210 256 206 q 236 202 219 194 q 203 185 193 172 q 182 158 182 138 q 182 128 184 111 q 186 94 189 74 q 191 63 193 52 q 194 42 196 31 q 197 20 198 11 q 199 1 199 -6 q 199 -41 187 -66 q 174 -91 152 -107 q 129 -124 98 -131 q 66 -139 28 -139 l 28 -73 q 63 -72 84 -54 q 105 -37 105 1 q 105 10 103 27 q 100 44 97 65 q 94 86 91 108 q 88 130 88 144 q 88 164 94 180 q 100 196 111 209 q 121 222 136 231 q 150 241 167 247 q 132 260 110 284 q 88 309 88 349 q 88 356 89 365 q 89 375 91 385 q 92 396 94 407 q 96 418 97 428 q 100 449 103 466 q 105 483 105 492 q 105 530 84 547 q 63 565 28 566 l 28 632 q 66 631 98 624 q 129 616 152 600 q 174 583 187 558 q 199 533 199 498 q 199 484 196 462 q 193 440 189 419 q 186 399 184 382 q 182 365 182 355 q 182 334 193 321 q 203 308 219 299 q 236 291 256 287 q 277 284 297 283 z"},"Z":{"x_min":0,"x_max":556,"ha":556,"o":"m 512 615 l 189 81 l 503 81 l 503 0 l 44 0 l 44 21 l 364 550 l 44 550 l 44 632 l 512 632 z"},"x":{"x_min":0,"x_max":433,"ha":433,"o":"m 422 401 l 273 205 q 291 182 310 156 q 329 129 349 103 q 368 76 387 50 q 407 23 424 0 l 320 0 l 231 130 q 228 135 223 142 q 218 150 216 153 q 213 150 209 142 q 204 135 201 130 l 110 0 l 8 0 l 163 202 q 146 226 127 251 q 109 276 90 302 q 72 328 53 353 q 35 377 18 401 l 122 401 l 200 284 q 202 282 204 277 q 207 273 210 268 q 213 264 215 259 q 218 254 219 252 q 221 255 223 260 q 226 264 229 269 q 232 274 235 278 q 237 282 239 284 q 261 315 280 343 q 299 371 322 401 z"},")":{"x_min":0,"x_max":292,"ha":292,"o":"m 235 242 q 235 18 96 -140 l 12 -140 q 76 -54 107 42 q 139 137 139 243 q 139 352 108 448 q 76 544 11 632 l 96 632 q 235 468 235 242 z"},"&":{"x_min":0,"x_max":689,"ha":689,"o":"m 564 292 q 558 271 550 249 q 542 227 531 206 q 521 184 510 164 q 498 144 484 126 q 509 96 531 81 q 553 66 579 66 q 592 66 606 68 q 621 70 642 76 l 642 7 q 625 -1 606 -5 q 586 -9 566 -9 q 541 -9 521 -4 q 501 1 484 11 q 467 21 452 34 q 438 47 424 63 q 406 47 386 34 q 366 21 343 11 q 320 1 293 -4 q 266 -9 234 -9 q 189 -9 154 4 q 119 18 95 41 q 72 64 59 96 q 47 128 47 166 q 47 204 58 235 q 69 265 90 289 q 110 313 139 333 q 168 352 204 367 q 188 394 177 423 q 166 453 166 488 q 166 522 178 551 q 191 579 213 599 q 234 619 264 629 q 294 640 329 640 q 368 640 400 631 q 433 622 456 607 l 456 526 q 444 534 428 542 q 413 549 397 554 q 381 560 366 563 q 351 567 338 567 q 313 567 298 558 q 283 550 275 537 q 267 525 264 511 q 261 498 261 488 q 261 462 271 435 q 281 408 305 371 q 316 354 331 332 q 346 311 363 287 q 380 263 399 238 q 417 212 436 189 q 450 212 461 237 q 473 262 481 292 l 417 292 l 417 364 l 632 364 l 632 292 z m 241 67 q 279 67 314 82 q 349 97 378 123 q 343 168 308 216 q 272 264 240 311 q 212 296 193 280 q 175 264 164 246 q 153 228 148 209 q 144 190 144 170 q 144 146 151 127 q 158 108 170 94 q 183 81 201 74 q 219 67 241 67 z"},"_":{"x_min":0,"x_max":390,"ha":390,"o":"m 390 -141 l 0 -141 l 0 -74 l 390 -74 z"},"v":{"x_min":0,"x_max":423,"ha":423,"o":"m 420 401 l 241 0 l 168 0 l 5 401 l 101 401 l 191 159 q 196 146 201 131 q 205 116 209 101 q 211 109 214 118 q 217 126 220 135 q 223 143 225 149 q 228 156 229 160 q 240 188 252 219 q 264 250 276 281 q 289 312 301 343 q 313 373 325 401 z"},"O":{"x_min":0,"x_max":707,"ha":707,"o":"m 553 314 q 553 372 541 417 q 528 463 503 495 q 478 526 441 543 q 405 560 357 560 q 311 560 274 542 q 236 524 210 492 q 184 460 169 415 q 155 370 155 315 q 155 260 168 215 q 182 170 208 139 q 233 107 270 89 q 306 72 351 72 q 399 72 437 88 q 474 104 500 135 q 526 167 540 212 q 553 257 553 314 z m 652 324 q 652 248 631 186 q 610 124 572 81 q 533 38 477 14 q 421 -9 351 -9 q 284 -9 229 14 q 174 37 136 78 q 97 120 76 179 q 55 237 55 309 q 55 384 76 446 q 97 507 136 550 q 176 593 233 617 q 290 640 362 640 q 428 640 481 617 q 535 594 573 552 q 611 511 631 453 q 652 395 652 324 z"},"(":{"x_min":0,"x_max":292,"ha":292,"o":"m 153 243 q 153 137 185 42 q 216 -54 280 -140 l 196 -140 q 57 18 57 242 q 57 468 196 632 l 281 632 q 216 544 184 448 q 153 352 153 243 z"},"C":{"x_min":0,"x_max":593,"ha":593,"o":"m 155 309 q 155 256 170 212 q 186 168 214 137 q 242 106 281 89 q 320 72 368 72 q 413 72 456 83 q 500 95 540 117 l 540 31 q 503 11 458 1 q 413 -9 359 -9 q 292 -9 236 15 q 180 38 140 80 q 100 122 77 180 q 55 239 55 309 q 55 381 79 442 q 103 503 145 547 q 188 591 245 615 q 303 640 371 640 q 394 640 417 637 q 441 635 463 630 q 486 625 506 619 q 526 613 543 606 l 543 520 q 526 527 505 535 q 484 542 461 548 q 439 553 416 557 q 392 560 370 560 q 324 560 285 542 q 246 524 217 492 q 188 459 171 413 q 155 366 155 309 z"},"W":{"x_min":0,"x_max":950,"ha":950,"o":"m 935 632 l 735 0 l 641 0 l 487 446 q 481 463 478 478 q 474 493 473 509 l 471 509 q 466 478 457 447 l 314 0 l 220 0 l 14 632 l 111 632 l 255 180 q 260 165 263 150 q 267 134 268 117 l 270 117 q 271 128 276 144 q 280 160 285 180 l 430 632 l 517 632 l 672 175 q 676 162 680 148 q 684 134 685 117 l 686 117 q 688 128 692 143 q 696 158 701 177 l 839 632 z"},"A":{"x_min":0,"x_max":592,"ha":592,"o":"m 589 0 l 486 0 l 415 181 l 172 181 l 106 0 l 3 0 l 248 632 l 341 632 z m 306 480 q 304 487 300 500 q 296 513 294 527 l 292 527 q 290 512 286 499 q 282 486 279 477 l 202 265 l 386 265 z"},"f":{"x_min":0,"x_max":306,"ha":306,"o":"m 193 401 l 284 401 l 284 337 l 193 337 l 193 0 l 99 0 l 99 337 l 25 337 l 25 401 l 99 401 l 99 489 q 99 563 135 602 q 172 640 235 640 q 246 640 260 638 q 274 635 284 632 l 284 555 q 280 556 273 557 q 267 559 260 559 q 254 560 248 561 q 242 561 238 561 q 218 561 206 545 q 193 530 193 496 z"},"Q":{"x_min":0,"x_max":707,"ha":707,"o":"m 553 314 q 553 372 541 417 q 528 463 503 495 q 478 526 441 543 q 405 560 357 560 q 311 560 274 542 q 236 524 210 492 q 184 460 169 415 q 155 370 155 315 q 155 260 168 215 q 182 170 208 139 q 233 107 270 89 q 306 72 351 72 q 399 72 437 88 q 474 104 500 135 q 526 167 540 212 q 553 257 553 314 z m 652 324 q 652 223 618 151 q 584 80 520 38 l 644 -72 l 587 -133 l 419 -2 q 403 -5 386 -7 q 370 -9 351 -9 q 284 -9 229 14 q 174 37 136 78 q 97 120 76 179 q 55 237 55 309 q 55 384 76 446 q 97 507 136 550 q 176 593 233 617 q 290 640 362 640 q 428 640 481 617 q 535 594 573 552 q 611 511 631 453 q 652 395 652 324 z"},"w":{"x_min":0,"x_max":657,"ha":657,"o":"m 647 401 l 495 0 l 410 0 l 344 212 q 337 233 333 250 q 329 267 327 276 l 324 276 q 322 267 318 250 q 313 234 306 211 l 238 0 l 156 0 l 10 401 l 106 401 l 175 189 q 178 182 181 171 q 184 160 187 148 q 190 137 193 125 q 195 113 197 104 l 199 104 q 201 114 204 126 q 207 138 210 149 q 214 161 217 172 q 221 182 223 189 l 291 401 l 363 401 l 430 189 q 433 182 436 171 q 439 160 442 148 q 446 137 449 125 q 452 113 454 104 l 455 104 q 458 113 461 125 q 464 137 467 149 q 470 161 474 172 q 477 182 479 189 l 550 401 z"},"-":{"x_min":0,"x_max":359,"ha":359,"o":"m 295 172 l 64 172 l 64 255 l 295 255 z"},"E":{"x_min":0,"x_max":466,"ha":466,"o":"m 403 0 l 87 0 l 87 632 l 402 632 l 402 550 l 182 550 l 182 358 l 403 358 l 403 277 l 182 277 l 182 81 l 403 81 z"},"s":{"x_min":0,"x_max":349,"ha":349,"o":"m 312 113 q 312 87 303 65 q 294 42 276 26 q 257 10 230 0 q 202 -9 165 -9 q 129 -9 97 0 q 64 9 42 26 l 42 107 q 55 98 70 90 q 85 82 102 75 q 118 69 133 66 q 149 62 162 62 q 194 62 208 76 q 223 89 223 109 q 223 119 220 127 q 217 135 209 142 q 201 149 187 156 q 172 163 150 171 q 119 182 98 195 q 78 207 65 222 q 53 237 47 254 q 42 271 42 292 q 42 318 53 340 q 65 362 85 377 q 104 393 131 402 q 158 410 188 410 q 215 410 242 405 q 268 399 293 386 l 293 313 q 269 324 242 331 q 216 338 190 338 q 160 338 144 325 q 129 312 129 293 q 129 285 132 277 q 135 270 143 263 q 151 256 165 249 q 178 242 199 235 q 229 225 250 213 q 271 202 285 188 q 299 173 305 155 q 312 137 312 113 z"},">":{"x_min":0,"x_max":505,"ha":505,"o":"m 54 143 l 325 274 l 54 420 l 54 510 l 450 293 l 450 246 l 54 54 z"},"l":{"x_min":0,"x_max":244,"ha":244,"o":"m 169 0 l 75 0 l 75 632 l 169 632 z"},"8":{"x_min":0,"x_max":505,"ha":505,"o":"m 338 478 q 338 497 332 513 q 326 529 314 540 q 303 551 286 558 q 270 564 249 564 q 208 564 184 541 q 159 519 159 476 q 159 457 167 440 q 174 423 187 409 q 200 396 217 386 q 234 376 253 372 q 276 378 292 389 q 308 399 318 413 q 329 427 333 443 q 338 460 338 478 z m 359 173 q 359 191 354 209 q 348 227 335 243 q 322 259 301 272 q 279 285 247 292 q 224 286 205 275 q 186 264 172 248 q 158 232 151 213 q 143 194 143 172 q 143 147 151 128 q 159 108 173 95 q 187 82 206 74 q 226 67 249 67 q 275 67 296 75 q 316 84 330 99 q 344 113 352 133 q 359 152 359 173 z m 454 174 q 454 133 438 99 q 423 66 395 42 q 368 18 330 4 q 292 -9 249 -9 q 208 -9 172 2 q 135 13 107 35 q 80 57 63 90 q 47 124 47 168 q 47 226 78 266 q 109 305 164 331 q 142 341 124 356 q 105 371 92 390 q 78 410 71 433 q 63 456 63 481 q 63 516 77 545 q 90 575 115 596 q 140 617 174 628 q 208 640 250 640 q 290 640 323 629 q 357 619 382 598 q 406 578 420 548 q 434 519 434 482 q 434 457 427 436 q 420 414 407 396 q 395 377 377 361 q 360 346 339 333 q 399 308 427 270 q 454 231 454 174 z"},"\\":{"x_min":0,"x_max":390,"ha":390,"o":"m 98 632 l 392 0 l 292 0 l -2 632 z"},"e":{"x_min":0,"x_max":492,"ha":492,"o":"m 256 337 q 209 337 179 313 q 150 290 140 244 l 352 244 q 350 290 325 313 q 300 337 256 337 z m 47 203 q 47 250 62 288 q 77 326 105 353 q 132 380 171 395 q 209 410 257 410 q 303 410 338 397 q 373 383 397 358 q 421 333 433 297 q 445 261 445 216 l 445 176 l 138 176 q 141 151 151 130 q 162 108 179 93 q 197 78 221 70 q 246 61 275 61 q 292 61 311 64 q 331 67 351 73 q 371 80 391 88 q 412 97 430 109 l 430 35 q 393 14 352 3 q 311 -9 258 -9 q 209 -9 170 6 q 131 20 104 47 q 76 75 62 114 q 47 153 47 203 z"},"b":{"x_min":0,"x_max":521,"ha":521,"o":"m 169 69 q 183 66 198 64 q 213 62 231 62 q 272 62 300 75 q 328 88 346 109 q 363 130 371 158 q 379 186 379 215 q 379 246 370 269 q 362 292 347 308 q 332 323 311 331 q 291 339 266 339 q 255 339 242 337 q 229 334 215 331 q 202 327 190 322 q 178 316 169 310 z m 75 632 l 169 632 l 169 456 q 169 450 169 439 q 168 429 168 418 q 168 407 167 397 q 167 387 166 380 q 176 386 190 392 q 204 397 219 401 q 234 405 251 408 q 267 410 282 410 q 328 410 363 396 q 399 382 424 357 q 448 332 461 297 q 474 262 474 219 q 474 168 458 126 q 441 84 411 54 q 380 24 337 8 q 294 -8 240 -8 q 216 -8 193 -6 q 169 -3 147 0 q 125 4 107 8 q 88 13 75 17 z"},"%":{"x_min":0,"x_max":758,"ha":758,"o":"m 262 475 q 262 523 244 550 q 225 577 193 577 q 160 577 141 549 q 122 521 122 470 q 122 423 140 396 q 159 369 191 369 q 224 369 243 397 q 262 425 262 475 z m 637 161 q 637 209 619 236 q 601 263 569 263 q 536 263 516 235 q 497 208 497 156 q 497 108 516 82 q 535 55 568 55 q 600 55 619 83 q 637 111 637 161 z m 630 632 l 212 0 l 121 0 l 540 632 z m 717 162 q 717 124 706 93 q 695 62 675 39 q 655 16 626 4 q 598 -9 563 -9 q 530 -9 503 3 q 476 15 457 36 q 437 57 427 87 q 416 117 416 153 q 416 192 427 225 q 438 257 458 280 q 479 302 507 315 q 536 327 572 327 q 607 327 634 316 q 661 304 679 283 q 698 262 707 231 q 717 200 717 162 z m 342 477 q 342 438 331 407 q 319 375 299 353 q 279 330 250 318 q 222 305 187 305 q 154 305 127 317 q 100 329 81 350 q 62 371 52 401 q 41 431 41 467 q 41 507 52 539 q 63 571 83 593 q 103 616 132 628 q 160 640 196 640 q 231 640 259 629 q 286 618 304 597 q 323 576 332 545 q 342 515 342 477 z"},"m":{"x_min":0,"x_max":757,"ha":757,"o":"m 428 0 l 334 0 l 334 248 q 334 291 318 313 q 301 336 268 336 q 253 336 238 331 q 224 327 211 320 q 198 313 187 305 q 176 297 169 290 l 169 0 l 75 0 l 75 401 l 166 401 l 168 361 q 178 370 191 379 q 204 388 219 395 q 234 401 251 406 q 268 410 286 410 q 332 410 362 393 q 393 375 408 344 q 420 356 436 368 q 451 380 469 389 q 486 398 506 404 q 525 410 545 410 q 617 410 652 368 q 686 327 686 251 l 686 0 l 592 0 l 592 248 q 592 291 575 313 q 559 336 527 336 q 510 336 495 331 q 479 325 466 317 q 453 310 443 300 q 432 291 426 283 q 427 278 427 268 q 428 258 428 251 z"},"#":{"x_min":0,"x_max":572,"ha":572,"o":"m 257 435 l 360 435 l 398 632 l 469 632 l 431 435 l 542 435 l 542 366 l 418 366 l 398 264 l 514 264 l 514 195 l 385 195 l 348 0 l 275 0 l 313 195 l 212 195 l 175 0 l 103 0 l 139 195 l 30 195 l 30 264 l 152 264 l 172 366 l 59 366 l 59 435 l 185 435 l 222 632 l 295 632 z m 225 264 l 326 264 l 346 366 l 244 366 z"},",":{"x_min":0,"x_max":229,"ha":229,"o":"m 180 96 q 173 71 162 42 q 151 13 138 -17 q 125 -47 111 -77 q 98 -106 86 -131 l 14 -131 q 23 -104 31 -75 q 39 -45 46 -16 q 53 14 59 43 q 64 72 68 96 z"},"n":{"x_min":0,"x_max":503,"ha":503,"o":"m 437 0 l 343 0 l 343 248 q 343 291 325 313 q 308 336 273 336 q 257 336 242 332 q 228 328 214 322 q 201 315 190 307 q 178 299 169 290 l 169 0 l 75 0 l 75 401 l 166 401 l 169 361 q 179 371 192 379 q 205 388 220 395 q 235 402 253 406 q 271 410 291 410 q 366 410 401 370 q 437 330 437 254 z"},"h":{"x_min":0,"x_max":502,"ha":502,"o":"m 437 0 l 343 0 l 343 248 q 343 291 325 313 q 308 336 273 336 q 256 336 240 332 q 225 328 212 321 q 199 314 188 306 q 177 297 169 289 l 169 0 l 75 0 l 75 632 l 169 632 l 169 428 q 169 422 169 414 q 168 406 168 397 q 168 388 168 379 q 167 371 167 364 q 177 373 191 381 q 205 389 221 396 q 237 402 255 406 q 272 410 291 410 q 366 410 401 369 q 437 328 437 252 z"},"z":{"x_min":0,"x_max":405,"ha":405,"o":"m 372 372 l 160 75 l 381 75 l 381 0 l 25 0 l 25 32 l 237 326 l 43 326 l 43 401 l 372 401 z"},"B":{"x_min":0,"x_max":521,"ha":521,"o":"m 353 469 q 353 487 347 503 q 341 519 328 531 q 314 543 293 550 q 272 557 241 557 q 222 557 208 557 q 194 556 183 555 l 183 363 l 223 363 q 287 363 320 390 q 353 417 353 469 z m 387 186 q 387 237 353 262 q 318 286 250 286 l 183 286 l 183 77 q 199 76 217 75 q 235 74 258 74 q 319 74 353 104 q 387 133 387 186 z m 485 189 q 485 146 471 111 q 457 76 427 51 q 398 25 352 11 q 307 -3 243 -3 q 227 -3 206 -2 q 185 -1 163 0 q 141 1 121 3 q 101 5 87 7 l 87 629 q 116 631 156 633 q 197 634 240 634 q 290 634 329 623 q 369 613 396 593 q 423 573 437 543 q 451 514 451 476 q 451 451 444 429 q 438 408 426 390 q 414 372 397 357 q 380 343 361 334 q 387 328 409 315 q 432 303 449 284 q 466 266 475 242 q 485 218 485 189 z"},"K":{"x_min":0,"x_max":561,"ha":561,"o":"m 561 0 l 437 0 l 212 243 q 205 250 197 259 q 188 268 181 277 l 181 0 l 85 0 l 85 632 l 181 632 l 182 354 q 192 367 204 380 q 215 393 221 401 l 422 632 l 538 632 l 262 321 z"},"R":{"x_min":0,"x_max":531,"ha":531,"o":"m 367 463 q 367 508 335 529 q 302 550 235 550 l 183 550 l 183 357 l 230 357 q 296 357 332 385 q 367 413 367 463 z m 516 0 l 403 0 l 227 279 l 183 279 l 183 0 l 87 0 l 87 632 l 230 632 q 280 632 324 624 q 367 616 399 596 q 431 577 449 545 q 468 514 468 466 q 468 431 455 402 q 443 373 423 352 q 402 330 376 316 q 350 301 322 295 z"},"T":{"x_min":0,"x_max":491,"ha":491,"o":"m 453 550 l 294 550 l 294 0 l 198 0 l 198 550 l 38 550 l 38 632 l 453 632 z"},"P":{"x_min":0,"x_max":512,"ha":512,"o":"m 370 454 q 370 479 362 497 q 353 515 334 527 q 316 539 287 544 q 258 550 217 550 l 183 550 l 183 338 l 214 338 q 288 338 329 367 q 370 397 370 454 z m 469 459 q 469 414 451 377 q 434 339 398 312 q 362 285 309 270 q 255 255 183 255 l 183 0 l 87 0 l 87 632 l 216 632 q 271 632 318 623 q 364 615 398 594 q 432 574 450 541 q 469 508 469 459 z"},"|":{"x_min":0,"x_max":505,"ha":505,"o":"m 295 -223 l 210 -223 l 210 666 l 295 666 z"},"t":{"x_min":0,"x_max":325,"ha":325,"o":"m 294 9 q 277 0 254 -4 q 230 -9 205 -9 q 146 -9 121 23 q 95 56 95 122 l 95 337 l 20 337 l 20 401 l 98 401 q 106 427 115 455 q 124 483 131 508 l 189 508 l 189 401 l 301 401 l 301 337 l 189 337 l 189 108 q 189 87 200 74 q 210 61 231 61 q 249 61 265 63 q 280 64 294 67 z"},"M":{"x_min":0,"x_max":829,"ha":829,"o":"m 752 0 l 663 0 l 643 413 q 643 419 642 429 q 642 439 642 451 q 642 462 641 474 q 641 485 641 492 q 638 481 635 469 q 631 456 627 445 q 624 434 621 426 q 619 417 617 413 l 458 0 l 372 0 l 210 413 q 208 418 205 427 q 202 435 198 446 q 195 457 191 469 q 188 481 185 492 q 185 484 185 473 q 185 462 184 450 q 184 438 183 427 q 183 417 182 408 l 156 0 l 67 0 l 111 632 l 214 632 l 396 166 q 398 159 401 150 q 404 141 407 131 q 409 122 411 112 q 414 102 415 94 q 417 102 419 112 q 421 123 424 133 q 427 143 430 152 q 433 162 435 168 l 616 632 l 723 632 z"},"g":{"x_min":0,"x_max":521,"ha":521,"o":"m 143 186 q 143 154 150 131 q 157 109 170 95 q 183 81 201 74 q 220 68 243 68 q 269 68 297 80 q 326 92 352 114 l 352 337 q 339 340 323 341 q 307 343 290 343 q 249 343 221 329 q 193 316 176 294 q 158 272 151 244 q 143 216 143 186 z m 47 183 q 47 234 63 276 q 80 318 110 348 q 141 377 184 394 q 228 410 281 410 q 305 410 329 408 q 352 406 374 402 q 395 399 414 394 q 432 390 446 385 l 446 23 q 446 -40 435 -87 q 424 -135 398 -167 q 372 -199 330 -215 q 287 -231 224 -231 q 188 -231 154 -226 q 120 -221 93 -212 l 93 -132 q 130 -144 165 -149 q 199 -155 231 -155 q 267 -155 291 -142 q 314 -129 328 -107 q 341 -84 347 -54 q 352 -24 352 11 l 352 42 q 325 22 293 10 q 262 -3 223 -3 q 180 -3 147 10 q 114 23 92 47 q 69 71 58 106 q 47 140 47 183 z"},"j":{"x_min":0,"x_max":238,"ha":238,"o":"m 181 515 q 181 503 177 494 q 172 485 164 478 q 156 472 146 468 q 135 465 123 465 q 98 465 82 478 q 65 491 65 515 q 65 539 82 552 q 98 565 123 565 q 147 565 164 552 q 181 539 181 515 z m 75 401 l 169 401 l 169 7 q 169 -38 164 -75 q 159 -111 151 -141 q 144 -170 133 -193 q 123 -215 112 -231 l 36 -231 q 42 -215 49 -191 q 56 -168 62 -138 q 67 -107 71 -71 q 75 -35 75 8 z"},"i":{"x_min":0,"x_max":244,"ha":244,"o":"m 182 515 q 182 503 177 494 q 172 485 164 478 q 156 472 146 468 q 135 465 123 465 q 99 465 82 478 q 65 491 65 515 q 65 539 82 552 q 99 565 123 565 q 135 565 146 562 q 156 558 164 552 q 172 545 177 536 q 182 527 182 515 z m 169 0 l 75 0 l 75 401 l 169 401 z"},"y":{"x_min":0,"x_max":421,"ha":421,"o":"m 416 401 l 270 42 q 262 21 252 -11 q 242 -43 232 -81 q 221 -119 211 -157 q 201 -194 192 -231 l 96 -231 q 105 -195 113 -166 q 122 -136 131 -107 q 140 -79 150 -50 q 161 -22 173 13 q 131 108 88 207 q 45 306 4 401 l 107 401 l 206 143 q 208 138 210 131 q 212 124 214 118 q 215 124 218 130 q 220 136 222 141 l 319 401 z"},"@":{"x_min":0,"x_max":779,"ha":779,"o":"m 471 166 q 458 152 443 139 q 428 127 411 118 q 394 109 375 104 q 357 98 337 98 q 303 98 277 110 q 250 123 232 145 q 214 167 205 198 q 196 229 197 267 q 198 311 211 348 q 225 385 250 412 q 276 439 312 454 q 349 469 396 469 q 417 469 438 467 q 459 465 477 462 q 496 459 511 456 q 526 453 537 449 l 537 208 q 537 198 541 188 q 544 179 550 173 q 556 166 564 162 q 572 158 581 158 q 600 158 615 171 q 629 184 640 207 q 650 229 656 260 q 661 290 661 325 q 661 386 643 434 q 625 481 594 513 q 562 545 518 562 q 474 579 422 579 q 350 579 294 555 q 238 530 200 487 q 162 444 141 385 q 121 326 121 257 q 121 193 138 142 q 155 91 188 55 q 222 20 272 1 q 323 -18 389 -18 q 438 -18 486 -8 q 533 2 571 18 l 571 -36 q 533 -56 485 -67 q 438 -79 381 -79 q 302 -79 241 -57 q 179 -34 137 9 q 94 51 72 113 q 50 175 50 254 q 50 336 75 407 q 101 478 149 530 q 197 582 265 611 q 333 640 418 640 q 486 640 543 618 q 601 597 642 556 q 683 515 706 456 q 729 396 729 322 q 729 281 719 240 q 710 200 691 169 q 672 137 644 118 q 616 98 579 98 q 557 98 540 104 q 522 110 509 120 q 496 129 487 142 q 478 154 472 166 z m 463 404 q 451 407 436 410 q 420 412 401 412 q 366 412 342 399 q 317 386 302 365 q 287 344 281 318 q 274 292 274 267 q 274 212 297 186 q 319 159 356 159 q 386 159 413 175 q 440 191 463 216 z"},".":{"x_min":0,"x_max":220,"ha":220,"o":"m 44 57 q 44 70 49 81 q 54 92 63 101 q 72 109 84 114 q 96 118 110 118 q 124 118 136 114 q 148 109 157 101 q 166 92 171 81 q 176 70 176 57 q 176 44 171 33 q 166 22 157 13 q 148 5 136 0 q 124 -5 110 -5 q 96 -5 84 0 q 72 5 63 13 q 54 22 49 33 q 44 44 44 57 z"},"p":{"x_min":0,"x_max":529,"ha":529,"o":"m 169 89 q 175 84 184 79 q 192 74 204 70 q 215 65 229 63 q 244 60 260 60 q 290 60 313 70 q 337 80 354 98 q 370 117 379 144 q 387 170 387 204 q 387 236 379 261 q 372 286 357 303 q 343 320 323 330 q 303 339 280 339 q 261 339 244 335 q 228 331 214 324 q 200 317 189 309 q 178 300 169 292 z m 75 401 l 167 401 l 169 365 q 192 383 224 397 q 255 410 296 410 q 335 410 370 397 q 404 383 429 357 q 454 331 468 292 q 482 254 482 203 q 482 156 468 117 q 455 79 428 51 q 402 23 364 8 q 326 -8 278 -8 q 248 -8 219 -1 q 190 6 169 17 l 169 -231 l 75 -231 z"},"X":{"x_min":0,"x_max":576,"ha":576,"o":"m 570 0 l 457 0 l 322 206 q 320 208 316 216 q 311 223 306 231 q 300 239 295 246 q 291 254 288 258 l 287 258 q 286 255 282 249 q 278 244 274 237 q 270 230 265 223 q 260 216 256 211 l 118 0 l 4 0 l 231 324 l 16 632 l 131 632 l 235 474 q 239 468 246 457 q 253 445 261 433 q 269 421 276 410 q 283 398 287 391 l 289 391 q 292 398 300 410 q 307 422 315 435 q 323 448 331 459 q 338 470 341 474 l 450 632 l 559 632 l 345 330 z"},"*":{"x_min":0,"x_max":402,"ha":402,"o":"m 117 274 l 46 330 l 135 422 l 26 445 l 47 527 l 163 489 l 156 632 l 246 632 l 239 489 l 355 527 l 376 445 l 265 422 l 354 330 l 284 274 l 201 384 z"},"Y":{"x_min":0,"x_max":526,"ha":526,"o":"m 527 632 l 311 266 l 311 0 l 215 0 l 215 263 l -1 632 l 106 632 l 238 396 q 241 391 244 384 q 248 377 251 370 q 255 363 258 355 q 262 348 264 342 q 267 348 270 355 q 272 363 276 370 q 279 377 282 384 q 285 391 288 395 l 426 632 z"},"c":{"x_min":0,"x_max":439,"ha":439,"o":"m 142 196 q 142 162 152 137 q 161 112 177 96 q 192 81 213 73 q 234 66 256 66 q 299 66 333 78 q 366 91 397 109 l 397 32 q 368 12 331 2 q 294 -9 247 -9 q 203 -9 166 5 q 129 19 103 46 q 77 72 62 110 q 47 148 47 197 q 47 250 64 289 q 82 329 112 356 q 142 383 182 396 q 222 410 266 410 q 298 410 333 402 q 368 394 397 376 l 397 295 q 366 314 334 325 q 301 335 266 335 q 241 335 219 327 q 196 320 179 303 q 162 286 152 260 q 142 233 142 196 z"},"!":{"x_min":0,"x_max":276,"ha":276,"o":"m 190 632 l 170 173 l 103 173 l 84 632 z m 76 49 q 76 61 81 72 q 85 83 94 91 q 103 99 114 103 q 125 108 138 108 q 151 108 162 103 q 173 99 182 91 q 190 83 195 72 q 200 61 200 49 q 200 37 195 27 q 190 17 182 9 q 173 0 162 -4 q 151 -9 138 -9 q 125 -9 114 -4 q 103 0 94 9 q 85 17 81 27 q 76 37 76 49 z"},"/":{"x_min":0,"x_max":390,"ha":390,"o":"m 392 632 l 98 0 l -2 0 l 292 632 z"},"[":{"x_min":0,"x_max":296,"ha":296,"o":"m 273 -140 l 75 -140 l 75 632 l 273 632 l 273 569 l 169 565 l 169 -73 l 273 -77 z"},"6":{"x_min":0,"x_max":505,"ha":505,"o":"m 361 190 q 361 220 352 242 q 343 263 327 277 q 311 291 290 298 q 269 304 244 304 q 221 304 199 299 q 177 293 161 286 q 153 270 150 247 q 146 224 146 202 q 146 168 154 143 q 162 118 177 101 q 191 84 211 76 q 230 68 254 68 q 278 68 298 76 q 317 84 331 100 q 345 116 353 138 q 361 161 361 190 z m 458 196 q 458 152 443 114 q 429 77 402 49 q 375 22 337 7 q 300 -9 254 -9 q 205 -9 167 6 q 129 21 104 49 q 78 77 65 117 q 52 156 52 205 q 52 253 67 308 q 83 362 111 418 q 140 474 179 529 q 219 583 267 632 l 371 632 q 342 599 315 564 q 288 530 264 496 q 240 462 221 430 q 202 397 189 368 q 203 371 222 374 q 240 376 263 376 q 302 376 338 364 q 373 353 400 330 q 426 307 442 273 q 458 240 458 196 z"},"r":{"x_min":0,"x_max":327,"ha":327,"o":"m 243 410 q 260 410 275 406 q 291 403 306 397 l 306 321 q 290 325 271 326 q 252 328 236 328 q 217 328 204 320 q 191 312 184 299 q 176 285 172 267 q 169 250 169 230 l 169 0 l 75 0 l 75 266 q 75 284 74 304 q 72 324 70 343 q 68 361 65 377 q 62 392 60 401 l 139 401 q 142 396 144 389 q 146 381 149 372 q 151 363 153 353 q 155 343 156 333 q 163 345 171 359 q 180 372 190 384 q 201 395 214 403 q 227 410 243 410 z"},"2":{"x_min":0,"x_max":505,"ha":505,"o":"m 320 458 q 320 506 296 533 q 272 560 227 560 q 207 560 185 554 q 162 548 140 538 q 119 527 99 514 q 79 501 65 487 l 65 575 q 79 588 98 600 q 117 612 139 621 q 162 629 187 635 q 211 640 238 640 q 280 640 314 628 q 349 616 372 594 q 396 571 409 540 q 422 508 422 469 q 422 429 412 396 q 402 363 384 333 q 366 303 342 273 q 318 244 289 209 l 182 79 l 443 79 l 443 0 l 67 0 l 67 69 l 216 253 q 239 282 259 307 q 278 331 292 354 q 305 378 312 403 q 320 428 320 458 z"},"{":{"x_min":0,"x_max":325,"ha":325,"o":"m 28 283 q 48 284 69 287 q 89 291 106 299 q 122 308 133 321 q 143 334 143 355 q 143 365 141 382 q 139 399 136 419 q 132 441 129 463 q 126 484 126 498 q 126 533 138 558 q 151 583 173 600 q 196 616 227 624 q 259 631 297 632 l 297 566 q 262 565 241 547 q 220 530 220 492 q 220 483 223 466 q 225 449 228 428 q 231 407 234 385 q 237 363 237 349 q 237 329 231 313 q 225 297 214 284 q 204 271 189 261 q 175 252 158 245 q 194 233 216 208 q 237 184 237 144 q 237 137 236 128 q 235 119 234 108 q 232 97 231 86 q 229 75 228 65 q 225 44 223 27 q 220 10 220 1 q 220 -37 241 -54 q 262 -72 297 -73 l 297 -139 q 259 -139 227 -131 q 196 -124 173 -107 q 151 -91 138 -66 q 126 -41 126 -6 q 126 1 127 11 q 127 20 129 31 q 130 42 132 52 q 134 63 136 74 q 139 94 141 111 q 143 128 143 138 q 143 158 133 172 q 122 185 106 194 q 89 202 69 206 q 48 210 28 211 z"},"9":{"x_min":0,"x_max":505,"ha":505,"o":"m 145 443 q 145 413 154 391 q 163 369 179 355 q 194 341 216 335 q 237 328 261 328 q 285 328 307 333 q 329 338 345 345 q 352 362 355 383 q 359 404 359 430 q 359 463 351 488 q 343 513 329 530 q 314 546 295 555 q 275 563 252 563 q 228 563 208 555 q 188 547 175 531 q 161 516 153 494 q 145 472 145 443 z m 47 436 q 47 480 62 517 q 76 555 103 582 q 130 609 168 625 q 206 640 252 640 q 301 640 338 625 q 376 610 402 583 q 427 555 441 515 q 454 476 454 427 q 454 382 438 328 q 422 275 393 219 q 365 162 326 106 q 287 50 240 0 l 130 0 q 160 34 188 68 q 216 103 240 136 q 264 169 283 202 q 303 234 315 264 q 301 260 283 258 q 265 255 242 255 q 201 255 166 267 q 130 278 104 302 q 77 325 62 358 q 47 392 47 436 z"}," ":{"x_min":0,"x_max":207,"ha":207,"o":""},"I":{"x_min":0,"x_max":270,"ha":270,"o":"m 183 0 l 87 0 l 87 632 l 183 632 z"},"H":{"x_min":0,"x_max":710,"ha":710,"o":"m 623 0 l 527 0 l 527 281 l 183 281 l 183 0 l 87 0 l 87 632 l 183 632 l 183 362 l 527 362 l 527 632 l 623 632 z"},"4":{"x_min":0,"x_max":505,"ha":505,"o":"m 297 237 l 297 481 q 297 488 297 496 q 297 505 298 514 q 295 512 294 509 q 293 506 291 504 q 284 497 271 481 q 258 466 243 446 q 228 425 210 400 q 193 375 177 348 q 160 321 146 292 q 131 264 120 237 z m 481 163 l 390 163 l 390 0 l 297 0 l 297 163 l 30 163 l 24 192 q 29 223 47 263 q 65 303 90 346 q 116 390 146 434 q 177 478 207 516 q 238 555 266 586 q 294 617 315 634 l 390 634 l 390 237 l 481 237 z"},"~":{"x_min":0,"x_max":505,"ha":505,"o":"m 345 193 q 313 193 284 206 q 255 218 219 243 q 200 257 186 263 q 172 269 161 269 q 139 269 126 250 q 112 230 111 193 l 26 193 q 27 228 36 257 q 46 286 63 306 q 81 326 105 337 q 130 348 161 348 q 188 348 216 336 q 244 324 271 307 q 296 290 314 281 q 333 272 345 272 q 366 272 379 291 q 393 310 394 348 l 480 348 q 479 312 469 284 q 459 255 442 235 q 425 215 401 204 q 376 193 345 193 z"},"D":{"x_min":0,"x_max":676,"ha":676,"o":"m 522 327 q 522 385 504 427 q 485 469 451 497 q 417 524 368 537 q 319 550 258 550 l 183 550 l 183 81 l 249 81 q 312 81 362 98 q 413 116 448 148 q 484 180 503 225 q 522 271 522 327 z m 621 328 q 621 254 594 194 q 567 133 518 90 q 469 47 401 23 q 333 0 252 0 l 87 0 l 87 632 l 260 632 q 346 632 413 613 q 480 593 526 555 q 573 517 597 460 q 621 403 621 328 z"},"^":{"x_min":0,"x_max":503,"ha":503,"o":"m 27 246 l 214 632 l 268 632 l 477 246 l 390 246 l 242 519 l 113 246 z"},"0":{"x_min":0,"x_max":505,"ha":505,"o":"m 371 311 q 371 438 342 502 q 312 565 256 565 q 195 565 165 501 q 134 437 134 306 q 134 186 164 126 q 194 67 253 67 q 311 67 341 127 q 371 188 371 311 z m 467 318 q 467 241 452 180 q 437 120 409 78 q 380 36 340 13 q 299 -9 247 -9 q 196 -9 157 12 q 118 33 91 73 q 65 112 52 170 q 38 229 38 303 q 38 384 52 447 q 65 510 93 553 q 120 596 162 618 q 203 640 259 640 q 467 640 467 318 z"},"F":{"x_min":0,"x_max":449,"ha":449,"o":"m 400 550 l 180 550 l 180 360 l 401 360 l 401 279 l 180 279 l 180 0 l 85 0 l 85 632 l 400 632 z"},"`":{"x_min":0,"x_max":220,"ha":220,"o":"m 202 448 l 151 448 q 141 457 128 469 q 115 480 102 494 q 89 508 76 522 q 63 537 52 551 q 41 565 32 577 q 23 589 18 597 l 18 604 l 124 604 q 131 588 141 569 q 150 549 161 529 q 171 508 182 490 q 193 472 202 459 z"},"k":{"x_min":0,"x_max":466,"ha":466,"o":"m 473 0 l 356 0 l 168 188 q 168 184 168 176 q 169 167 169 162 l 169 0 l 75 0 l 75 632 l 169 632 l 169 316 q 169 312 169 305 q 168 297 168 288 q 168 278 168 268 q 167 258 167 250 l 336 401 l 451 401 l 250 223 z"},"u":{"x_min":0,"x_max":503,"ha":503,"o":"m 66 401 l 160 401 l 160 153 q 160 111 177 88 q 195 65 230 65 q 246 65 260 69 q 275 73 289 79 q 302 86 313 94 q 325 102 334 111 l 334 401 l 428 401 l 428 0 l 337 0 l 334 40 q 324 31 311 22 q 298 13 283 6 q 268 0 250 -5 q 232 -9 212 -9 q 137 -9 102 31 q 66 71 66 147 z"},"]":{"x_min":0,"x_max":296,"ha":296,"o":"m 23 -77 l 127 -73 l 127 565 l 23 569 l 23 632 l 221 632 l 221 -140 l 23 -140 z"},"U":{"x_min":0,"x_max":680,"ha":680,"o":"m 344 70 q 380 70 409 81 q 438 92 459 114 q 480 135 491 168 q 503 201 503 245 l 503 632 l 598 632 l 598 257 q 598 190 580 140 q 562 89 528 56 q 494 22 445 6 q 396 -11 335 -11 q 277 -11 230 5 q 184 21 151 54 q 118 86 100 135 q 82 183 82 247 l 82 632 l 178 632 l 178 251 q 178 206 190 172 q 202 138 223 115 q 245 93 276 81 q 306 70 344 70 z"},"o":{"x_min":0,"x_max":519,"ha":519,"o":"m 378 202 q 378 269 349 302 q 319 336 263 336 q 207 336 175 301 q 143 267 143 200 q 143 168 151 143 q 160 118 175 101 q 191 83 213 74 q 235 65 263 65 q 319 65 349 100 q 378 135 378 202 z m 472 202 q 472 155 457 116 q 442 77 414 49 q 386 21 346 6 q 307 -9 257 -9 q 209 -9 170 6 q 131 21 104 47 q 77 74 62 112 q 47 150 47 197 q 47 247 62 287 q 77 326 106 354 q 134 381 175 396 q 216 410 267 410 q 316 410 354 396 q 393 382 419 355 q 445 328 458 290 q 472 251 472 202 z"},"N":{"x_min":0,"x_max":724,"ha":724,"o":"m 637 0 l 543 0 l 234 410 q 230 414 222 426 q 214 438 205 452 q 196 466 188 480 q 180 494 176 501 l 176 0 l 87 0 l 87 632 l 188 632 l 483 236 q 490 226 500 211 q 510 197 519 182 q 528 167 536 154 q 544 140 549 132 l 549 632 l 637 632 z"},"+":{"x_min":0,"x_max":505,"ha":505,"o":"m 466 232 l 292 232 l 292 61 l 214 61 l 214 232 l 39 232 l 39 310 l 214 310 l 214 480 l 292 480 l 292 310 l 466 310 z"},"G":{"x_min":0,"x_max":677,"ha":677,"o":"m 155 313 q 155 260 169 216 q 183 172 212 140 q 240 108 283 90 q 325 72 382 72 q 414 72 447 79 q 480 86 505 98 l 505 236 l 364 236 l 364 317 l 601 317 l 601 48 q 551 19 492 5 q 434 -9 370 -9 q 296 -9 237 15 q 179 39 138 81 q 98 124 76 182 q 55 240 55 308 q 55 386 81 448 q 107 509 152 552 q 197 595 258 617 q 319 640 390 640 q 449 640 503 625 q 558 611 602 583 l 601 486 q 579 502 553 516 q 527 529 499 539 q 472 548 444 554 q 417 559 390 559 q 336 559 292 541 q 249 523 218 491 q 188 458 171 413 q 155 368 155 313 z"},"q":{"x_min":0,"x_max":522,"ha":522,"o":"m 353 279 q 347 292 337 303 q 327 313 314 321 q 302 328 287 331 q 271 335 256 335 q 231 335 210 326 q 189 317 175 300 q 160 282 151 255 q 143 228 143 191 q 143 158 152 134 q 161 110 176 94 q 192 79 214 71 q 235 63 261 63 q 272 63 285 65 q 297 67 310 71 q 322 74 333 79 q 344 84 353 90 z m 447 -231 l 353 -231 l 353 -52 q 353 -47 353 -38 q 354 -28 354 -16 q 354 -5 355 6 q 355 18 356 25 q 336 12 306 2 q 275 -9 237 -9 q 191 -9 156 7 q 121 22 97 49 q 72 76 60 113 q 47 150 47 193 q 47 244 61 284 q 74 324 100 352 q 126 380 164 395 q 201 410 249 410 q 288 410 317 397 q 346 384 366 364 q 369 374 373 384 q 377 394 382 401 l 462 401 q 459 392 457 378 q 454 365 452 348 q 450 332 448 313 q 447 295 447 277 z"},"d":{"x_min":0,"x_max":529,"ha":529,"o":"m 142 197 q 142 163 150 138 q 159 113 173 97 q 188 81 207 73 q 226 65 247 65 q 266 65 282 70 q 299 74 314 81 q 328 88 340 96 q 352 104 360 111 l 360 312 q 354 317 344 322 q 334 327 323 331 q 311 335 297 338 q 283 341 269 341 q 245 341 222 334 q 199 327 181 310 q 164 293 153 265 q 142 238 142 197 z m 454 0 l 364 0 l 361 35 q 350 26 335 19 q 320 11 303 5 q 286 -1 267 -5 q 249 -9 229 -9 q 189 -9 156 5 q 123 18 99 44 q 74 70 61 109 q 47 147 47 198 q 47 246 62 285 q 76 324 103 352 q 130 380 169 395 q 208 410 256 410 q 286 410 312 403 q 339 396 360 385 l 360 632 l 454 632 z"},"1":{"x_min":0,"x_max":505,"ha":505,"o":"m 341 0 l 247 0 l 247 513 q 239 506 230 499 q 221 491 213 485 l 90 397 l 90 490 l 281 634 l 341 634 z"},"5":{"x_min":0,"x_max":505,"ha":505,"o":"m 444 204 q 444 154 426 115 q 408 75 376 48 q 345 20 304 6 q 263 -9 217 -9 q 175 -9 138 0 q 101 9 74 24 l 74 112 q 87 103 105 95 q 122 87 141 81 q 160 75 178 71 q 197 67 214 67 q 244 67 269 77 q 293 86 311 104 q 329 122 338 146 q 348 170 348 199 q 348 230 337 254 q 326 277 307 292 q 288 308 263 315 q 239 322 212 322 q 179 322 148 313 q 117 305 93 293 l 73 319 l 73 632 l 415 632 l 415 552 l 159 552 l 159 389 q 167 390 175 391 q 184 392 194 393 q 203 394 212 394 q 222 394 229 394 q 275 394 315 381 q 354 369 383 344 q 412 320 428 285 q 444 250 444 204 z"}}}
